<svg height='100px' width='100px'  fill="#5b4eff" xmlns="http://www.w3.org/2000/svg" xmlns:xlink="http://www.w3.org/1999/xlink" version="1.1" x="0px" y="0px" viewBox="0 0 100 100" style="enable-background:new 0 0 100 100;" xml:space="preserve"><g><path d="M61,13.45V25c0,2.75,2.24,5,5,5h11.55c-0.34-0.52-0.73-1.01-1.18-1.46l-13.9-13.9C62.01,14.18,61.52,13.79,61,13.45z"></path><path d="M28,90H70c4.96,0,9-4.04,9-9V34.9c0-0.3-0.02-0.6-0.04-0.9H66c-4.96,0-9-4.04-9-9V12.04C56.7,12.02,56.4,12,56.1,12H28   c-4.96,0-9,4.04-9,9V81C19,85.96,23.04,90,28,90z"></path></g></svg>